<mxfile host="app.diagrams.net" modified="2024-08-30T14:04:02.378Z" agent="Mozilla/5.0 (Windows NT 10.0; Win64; x64) AppleWebKit/537.36 (KHTML, like Gecko) Chrome/128.0.0.0 Safari/537.36 Edg/128.0.0.0" etag="eDXHWBwC64-PReQbd-f1" version="24.5.5" type="device">
  <diagram id="kgpKYQtTHZ0yAKxKKP6v" name="Page-1">
    <mxGraphModel dx="-797" dy="-593" grid="1" gridSize="10" guides="1" tooltips="1" connect="1" arrows="1" fold="1" page="1" pageScale="1" pageWidth="850" pageHeight="1100" math="0" shadow="0">
      <root>
        <mxCell id="0" />
        <mxCell id="1" parent="0" />
        <mxCell id="od-dk-tfpZx7mSIlCZZn-1" value="&lt;font style=&quot;&quot;&gt;&lt;span style=&quot;font-size: 20px;&quot;&gt;:FMU 1&lt;/span&gt;&lt;br&gt;&lt;font style=&quot;font-size: 12px;&quot;&gt;(coldstart = false)&lt;/font&gt;&lt;br&gt;&lt;/font&gt;" style="shape=umlLifeline;perimeter=lifelinePerimeter;whiteSpace=wrap;html=1;container=1;dropTarget=0;collapsible=0;recursiveResize=0;outlineConnect=0;portConstraint=eastwest;newEdgeStyle={&quot;curved&quot;:0,&quot;rounded&quot;:0};size=80;" parent="1" vertex="1">
          <mxGeometry x="1859" y="1999.13" width="241" height="440.87" as="geometry" />
        </mxCell>
        <mxCell id="od-dk-tfpZx7mSIlCZZn-2" value="&lt;span style=&quot;color: rgb(0, 0, 0); font-family: Helvetica; font-size: 20px; font-style: normal; font-variant-ligatures: normal; font-variant-caps: normal; font-weight: 400; letter-spacing: normal; orphans: 2; text-align: center; text-indent: 0px; text-transform: none; widows: 2; word-spacing: 0px; -webkit-text-stroke-width: 0px; background-color: rgb(251, 251, 251); text-decoration-thickness: initial; text-decoration-style: initial; text-decoration-color: initial; float: none; display: inline !important;&quot;&gt;:FMU 2&lt;/span&gt;&lt;br style=&quot;border-color: var(--border-color); color: rgb(0, 0, 0); font-family: Helvetica; font-size: 20px; font-style: normal; font-variant-ligatures: normal; font-variant-caps: normal; font-weight: 400; letter-spacing: normal; orphans: 2; text-align: center; text-indent: 0px; text-transform: none; widows: 2; word-spacing: 0px; -webkit-text-stroke-width: 0px; background-color: rgb(251, 251, 251); text-decoration-thickness: initial; text-decoration-style: initial; text-decoration-color: initial;&quot;&gt;&lt;span style=&quot;color: rgb(0, 0, 0); font-family: Helvetica; font-style: normal; font-variant-ligatures: normal; font-variant-caps: normal; font-weight: 400; letter-spacing: normal; orphans: 2; text-align: center; text-indent: 0px; text-transform: none; widows: 2; word-spacing: 0px; -webkit-text-stroke-width: 0px; background-color: rgb(251, 251, 251); text-decoration-thickness: initial; text-decoration-style: initial; text-decoration-color: initial; float: none; display: inline !important;&quot;&gt;&lt;font style=&quot;font-size: 12px;&quot;&gt;(coldstart = false)&lt;/font&gt;&lt;/span&gt;" style="shape=umlLifeline;perimeter=lifelinePerimeter;whiteSpace=wrap;html=1;container=1;dropTarget=0;collapsible=0;recursiveResize=0;outlineConnect=0;portConstraint=eastwest;newEdgeStyle={&quot;curved&quot;:0,&quot;rounded&quot;:0};size=80;" parent="1" vertex="1">
          <mxGeometry x="2693" y="1999.13" width="240.83" height="420.87" as="geometry" />
        </mxCell>
        <mxCell id="od-dk-tfpZx7mSIlCZZn-3" value="&lt;font style=&quot;font-size: 20px;&quot;&gt;:Bus Simulation&lt;/font&gt;" style="shape=umlLifeline;perimeter=lifelinePerimeter;whiteSpace=wrap;html=1;container=1;dropTarget=0;collapsible=0;recursiveResize=0;outlineConnect=0;portConstraint=eastwest;newEdgeStyle={&quot;curved&quot;:0,&quot;rounded&quot;:0};size=80;" parent="1" vertex="1">
          <mxGeometry x="2274.42" y="1999.13" width="240.83" height="430.87" as="geometry" />
        </mxCell>
        <mxCell id="od-dk-tfpZx7mSIlCZZn-4" value="" style="ellipse;whiteSpace=wrap;html=1;align=center;aspect=fixed;fillColor=none;strokeColor=none;resizable=0;perimeter=centerPerimeter;rotatable=0;allowArrows=0;points=[];outlineConnect=1;" parent="od-dk-tfpZx7mSIlCZZn-3" vertex="1">
          <mxGeometry x="180.46000000000004" y="280" width="10" height="10" as="geometry" />
        </mxCell>
        <mxCell id="od-dk-tfpZx7mSIlCZZn-5" value="" style="html=1;points=[[0,0,0,0,5],[0,1,0,0,-5],[1,0,0,0,5],[1,1,0,0,-5]];perimeter=orthogonalPerimeter;outlineConnect=0;targetShapes=umlLifeline;portConstraint=eastwest;newEdgeStyle={&quot;curved&quot;:0,&quot;rounded&quot;:0};fillColor=default;" parent="od-dk-tfpZx7mSIlCZZn-3" vertex="1">
          <mxGeometry x="115.41" y="150" width="10" height="270" as="geometry" />
        </mxCell>
        <mxCell id="od-dk-tfpZx7mSIlCZZn-12" value="&lt;font style=&quot;font-size: 18px;&quot;&gt;Symbol(COLLISION_AVOIDANCE_SYMBOL)&lt;/font&gt;" style="html=1;verticalAlign=bottom;endArrow=block;curved=0;rounded=0;" parent="1" target="od-dk-tfpZx7mSIlCZZn-1" edge="1">
          <mxGeometry width="80" relative="1" as="geometry">
            <mxPoint x="2390" y="2200" as="sourcePoint" />
            <mxPoint x="2393.925" y="2200" as="targetPoint" />
            <Array as="points">
              <mxPoint x="2060" y="2200" />
            </Array>
          </mxGeometry>
        </mxCell>
        <mxCell id="od-dk-tfpZx7mSIlCZZn-13" value="&lt;span style=&quot;font-size: 18px;&quot;&gt;Symbol(COLLISION_AVOIDANCE_SYMBOL)&lt;/span&gt;" style="html=1;verticalAlign=bottom;endArrow=block;curved=0;rounded=0;entryX=0.493;entryY=0.475;entryDx=0;entryDy=0;entryPerimeter=0;" parent="1" source="od-dk-tfpZx7mSIlCZZn-5" target="od-dk-tfpZx7mSIlCZZn-2" edge="1">
          <mxGeometry width="80" relative="1" as="geometry">
            <mxPoint x="2410" y="2200" as="sourcePoint" />
            <mxPoint x="2790" y="2200" as="targetPoint" />
            <mxPoint as="offset" />
          </mxGeometry>
        </mxCell>
        <mxCell id="5rSld9vM_kY5G92dZZkd-6" value="&lt;span style=&quot;font-size: 18px;&quot;&gt;StartCommunication(StartTime)&lt;/span&gt;" style="html=1;verticalAlign=bottom;endArrow=block;curved=0;rounded=0;" parent="1" target="od-dk-tfpZx7mSIlCZZn-1" edge="1">
          <mxGeometry width="80" relative="1" as="geometry">
            <mxPoint x="2390" y="2300" as="sourcePoint" />
            <mxPoint x="2010" y="2300" as="targetPoint" />
            <Array as="points" />
          </mxGeometry>
        </mxCell>
        <mxCell id="5rSld9vM_kY5G92dZZkd-7" value="&lt;span style=&quot;font-size: 18px;&quot;&gt;StartCommunication(StartTime)&lt;/span&gt;" style="html=1;verticalAlign=bottom;endArrow=block;curved=0;rounded=0;" parent="1" target="od-dk-tfpZx7mSIlCZZn-2" edge="1">
          <mxGeometry x="-0.0619" width="80" relative="1" as="geometry">
            <mxPoint x="2400" y="2300" as="sourcePoint" />
            <mxPoint x="2793.755" y="2300" as="targetPoint" />
            <Array as="points" />
            <mxPoint as="offset" />
          </mxGeometry>
        </mxCell>
        <mxCell id="lhQ-y2VZ34fne--Mh7LT-1" value="&lt;span style=&quot;font-size: 18px;&quot;&gt;Transmit(StartupFrame)&lt;/span&gt;" style="html=1;verticalAlign=bottom;endArrow=block;curved=0;rounded=0;" parent="1" target="od-dk-tfpZx7mSIlCZZn-1" edge="1">
          <mxGeometry width="80" relative="1" as="geometry">
            <mxPoint x="2390" y="2380" as="sourcePoint" />
            <mxPoint x="2010" y="2380" as="targetPoint" />
            <Array as="points" />
          </mxGeometry>
        </mxCell>
        <mxCell id="LzjSp3a5C5BQd5I67tzG-1" value="&lt;span style=&quot;font-size: 18px;&quot;&gt;Transmit(StartupFrame)&lt;/span&gt;" style="html=1;verticalAlign=bottom;endArrow=block;curved=0;rounded=0;startArrow=none;" parent="1" target="od-dk-tfpZx7mSIlCZZn-2" edge="1">
          <mxGeometry width="80" relative="1" as="geometry">
            <mxPoint x="2400" y="2380" as="sourcePoint" />
            <mxPoint x="2790" y="2380" as="targetPoint" />
            <Array as="points" />
          </mxGeometry>
        </mxCell>
        <mxCell id="LzjSp3a5C5BQd5I67tzG-3" value="" style="html=1;verticalAlign=bottom;endArrow=none;curved=0;rounded=0;" parent="1" edge="1">
          <mxGeometry width="80" relative="1" as="geometry">
            <mxPoint x="2394.84" y="2380" as="sourcePoint" />
            <mxPoint x="2394.84" y="2380" as="targetPoint" />
            <Array as="points" />
          </mxGeometry>
        </mxCell>
      </root>
    </mxGraphModel>
  </diagram>
</mxfile>
